<mxfile host="app.diagrams.net" modified="2023-06-04T11:25:07.992Z" agent="Mozilla/5.0 (Windows NT 10.0; Win64; x64; rv:109.0) Gecko/20100101 Firefox/113.0" version="21.3.7" etag="xaz9d83x2sW_ljILkHLx" type="github">
  <diagram name="Seite-1" id="XuaZ16H_RSh9hG0B_XFD">
    <mxGraphModel>
      <root>
        <mxCell id="0" />
        <mxCell id="1" parent="0" />
      </root>
    </mxGraphModel>
  </diagram>
</mxfile>
